<?xml version="1.0" standalone="no"?>
<!DOCTYPE svg PUBLIC "-//W3C//DTD SVG 20010904//EN"
 "http://www.w3.org/TR/2001/REC-SVG-20010904/DTD/svg10.dtd">
<svg version="1.0" xmlns="http://www.w3.org/2000/svg"
 width="1200.000000pt" height="1200.000000pt" viewBox="0 0 1200.000000 1200.000000"
 preserveAspectRatio="xMidYMid meet">
<metadata>
Created by potrace 1.16, written by Peter Selinger 2001-2019
</metadata>
<g transform="translate(0.000000,1200.000000) scale(0.100000,-0.100000)"
fill="#000000" stroke="none">
<path d="M3094 10300 c-187 -27 -330 -146 -396 -330 l-23 -65 0 -3900 c0
-3750 1 -3902 18 -3960 49 -160 178 -288 334 -331 66 -18 167 -19 2973 -19
2806 0 2907 1 2973 19 156 43 285 171 334 331 17 58 18 210 18 3960 l0 3900
-23 65 c-56 155 -168 265 -322 317 -53 17 -170 18 -2945 19 -1589 1 -2913 -2
-2941 -6z m4106 -1020 l0 -840 -2170 0 -2170 0 0 713 c0 454 4 725 10 749 24
86 119 183 204 207 18 5 883 10 2079 10 l2047 1 0 -840z m1767 812 c63 -33
106 -74 139 -134 l29 -53 3 -732 3 -733 -876 0 -875 0 0 840 0 840 768 -2 767
-3 42 -23z m171 -4919 l-3 -3078 -23 -42 c-33 -63 -74 -106 -134 -139 l-53
-29 -2925 0 -2925 0 -42 23 c-63 33 -106 74 -139 134 l-29 53 -3 3078 -2 3077
3140 0 3140 0 -2 -3077z"/>
<path d="M3334 9696 l-34 -34 0 -362 0 -362 34 -34 34 -34 359 0 c393 0 387
-1 418 60 22 42 22 697 1 739 -32 61 -31 61 -422 61 l-356 0 -34 -34z m646
-396 l0 -250 -250 0 -250 0 0 250 0 250 250 0 250 0 0 -250z"/>
<path d="M4627 9576 c-138 -51 -218 -188 -188 -322 41 -183 233 -276 399 -193
102 50 154 135 154 248 0 111 -55 202 -155 252 -53 28 -157 35 -210 15z m156
-207 c33 -36 35 -76 6 -113 -30 -38 -64 -49 -105 -36 -83 28 -86 146 -4 179
36 15 71 5 103 -30z"/>
<path d="M5547 9576 c-81 -29 -149 -97 -175 -175 -20 -57 -15 -155 10 -208
100 -212 398 -218 505 -9 22 42 27 65 27 126 0 64 -4 83 -29 129 -16 29 -46
68 -67 86 -69 58 -187 81 -271 51z m128 -180 c18 -8 38 -23 44 -34 16 -29 14
-84 -4 -109 -20 -29 -75 -46 -107 -34 -35 13 -68 58 -68 92 0 33 42 86 73 92
12 2 23 5 25 6 1 0 18 -5 37 -13z"/>
<path d="M6460 9573 c-64 -23 -142 -105 -165 -172 -21 -64 -17 -159 10 -211
24 -48 82 -107 130 -133 32 -17 57 -22 125 -22 75 0 91 3 132 27 168 99 198
309 64 444 -80 80 -189 104 -296 67z m136 -178 c48 -20 70 -71 51 -117 -17
-40 -33 -54 -72 -62 -39 -8 -94 26 -108 68 -13 40 13 93 56 111 40 18 32 18
73 0z"/>
<path d="M8200 9763 c-393 -66 -554 -542 -280 -827 302 -315 819 -125 847 311
8 121 -17 208 -90 315 -101 147 -300 231 -477 201z m183 -199 c64 -22 140 -92
174 -162 107 -220 -96 -481 -337 -431 -30 6 -68 18 -84 26 -54 28 -113 92
-141 154 -24 55 -27 71 -23 138 7 122 62 207 170 261 50 24 74 30 128 30 36 0
87 -7 113 -16z"/>
<path d="M5703 7544 c-326 -39 -662 -155 -958 -329 -224 -131 -489 -364 -657
-575 -260 -327 -437 -732 -505 -1155 -25 -158 -25 -574 0 -735 64 -401 226
-786 468 -1107 89 -119 332 -365 449 -455 759 -584 1784 -677 2629 -237 633
330 1101 937 1255 1629 45 204 59 360 53 600 -8 298 -34 455 -124 725 -53 158
-171 404 -263 545 -191 292 -488 581 -783 759 -292 176 -643 296 -983 336
-156 18 -427 18 -581 -1z m1317 -429 c10 -9 24 -14 30 -10 6 3 9 3 8 -2 -1 -4
8 -27 20 -50 35 -67 27 -132 -23 -187 -23 -26 -29 -38 -21 -47 6 -7 -8 -1 -31
11 -48 26 -52 35 -24 50 11 5 29 26 41 45 43 69 0 145 -82 145 -32 0 -47 -8
-87 -45 -32 -30 -57 -45 -75 -45 -14 0 -26 -4 -26 -10 0 -5 13 -10 28 -10 18
0 38 -10 52 -25 l24 -26 -49 22 c-28 12 -57 28 -66 35 -9 8 -19 11 -24 7 -5
-5 20 23 56 61 35 37 82 77 104 87 48 22 117 20 145 -6z m-793 -220 c703 -93
1283 -582 1488 -1257 69 -230 93 -521 61 -753 -55 -393 -217 -730 -486 -1009
-256 -266 -576 -440 -950 -517 -101 -21 -142 -24 -340 -24 -198 0 -239 3 -340
24 -515 106 -934 401 -1202 847 -107 179 -182 383 -224 609 -27 142 -27 470 0
610 107 570 457 1041 963 1294 208 104 376 152 648 184 80 10 276 5 382 -8z
m-2082 -2576 c-36 -43 -34 -92 5 -131 27 -27 36 -30 71 -25 36 5 41 2 54 -23
18 -34 8 -40 -63 -40 -78 0 -134 47 -152 125 -12 51 6 104 48 148 l37 38 13
-31 c12 -29 10 -34 -13 -61z m-117 -164 c20 -9 65 -44 99 -77 l63 -62 -22 -23
-21 -23 -68 65 c-37 36 -72 65 -78 65 -9 0 -41 50 -41 65 0 10 30 5 68 -10z"/>
<path d="M3551 2574 c-41 -34 -44 -92 -6 -129 l24 -25 326 0 326 0 24 25 c38
37 35 95 -6 129 l-31 26 -313 0 -313 0 -31 -26z"/>
</g>
</svg>
